<svg 
 xmlns="http://www.w3.org/2000/svg"
 xmlns:xlink="http://www.w3.org/1999/xlink"
 width="14px" height="10px">
<path fill-rule="evenodd"  fill="rgb(100, 100, 100)"
 d="M12.571,1.266 L7.358,4.389 L2.146,1.266 L2.146,2.521 L7.358,5.614 L12.571,2.521 L12.571,1.266 ZM13.486,0.390 C13.729,0.624 13.851,0.916 13.851,1.266 L13.851,8.737 C13.851,9.087 13.729,9.379 13.486,9.612 C13.242,9.846 12.937,9.972 12.571,9.992 L2.146,9.992 C1.780,9.972 1.475,9.846 1.231,9.612 C0.987,9.379 0.865,9.087 0.865,8.737 L0.865,1.266 C0.865,0.916 0.987,0.624 1.231,0.390 C1.475,0.157 1.780,0.031 2.146,0.011 L12.571,0.011 C12.937,0.031 13.242,0.157 13.486,0.390 Z"/>
</svg>