<svg 
 xmlns="http://www.w3.org/2000/svg"
 xmlns:xlink="http://www.w3.org/1999/xlink"
 width="33px" height="34px">
<path fill-rule="evenodd"  fill="rgb(100, 100, 100)"
 d="M17.907,-0.003 C25.515,-0.123 30.526,4.687 32.312,10.339 C32.535,11.046 32.626,11.804 32.774,12.591 C32.910,13.315 32.970,14.375 32.840,15.152 C32.694,16.020 32.707,16.788 32.510,17.550 C31.916,19.851 30.962,21.627 29.705,23.244 C29.223,23.863 28.686,24.468 28.071,24.956 C27.885,25.104 27.728,25.335 27.494,25.430 C26.923,25.662 26.338,25.021 26.669,24.484 C26.894,24.282 27.120,24.081 27.345,23.880 C27.741,23.467 28.137,23.053 28.533,22.640 C29.927,20.886 30.865,18.984 31.404,16.343 C31.676,15.014 31.600,13.162 31.322,11.922 C30.694,9.122 29.771,7.597 28.253,5.723 C27.921,5.313 27.527,4.892 27.114,4.565 C25.582,3.348 23.984,2.380 21.834,1.742 C21.197,1.553 20.510,1.490 19.805,1.367 C19.502,1.351 19.200,1.334 18.897,1.318 C18.117,1.195 17.125,1.296 16.438,1.432 C13.755,1.963 11.982,2.775 10.185,4.140 C9.817,4.420 8.990,5.402 8.452,4.679 C7.900,3.935 9.518,2.994 9.921,2.705 C11.333,1.691 12.966,0.902 14.904,0.404 C15.545,0.240 16.221,0.181 16.917,0.062 C17.247,0.040 17.577,0.018 17.907,-0.003 ZM8.172,12.003 C8.504,12.003 8.734,12.167 8.832,12.395 C8.929,12.623 8.881,13.037 8.881,13.341 C8.881,14.119 8.881,14.897 8.881,15.674 C9.276,15.670 9.587,15.673 9.756,15.886 C10.028,16.229 9.904,18.356 9.904,19.051 C9.904,22.645 9.904,26.240 9.904,29.834 C9.904,30.693 9.904,31.553 9.904,32.412 C9.904,32.774 9.974,33.309 9.855,33.587 C9.776,33.770 9.565,33.920 9.343,33.962 C7.039,33.962 4.734,33.962 2.429,33.962 C1.731,33.962 0.476,34.128 0.169,33.717 C-0.078,33.387 0.037,32.172 0.037,31.596 C0.037,29.759 0.037,27.920 0.037,26.082 C0.037,23.483 0.037,20.883 0.037,18.284 C0.037,17.490 -0.164,16.067 0.350,15.756 C0.516,15.655 0.805,15.671 1.076,15.674 C1.076,14.924 1.076,14.173 1.076,13.423 C1.076,13.118 1.011,12.655 1.109,12.411 C1.208,12.167 1.438,12.006 1.786,12.003 C1.786,9.687 1.786,7.370 1.786,5.054 C1.786,4.271 1.592,2.990 2.149,2.737 C2.472,2.591 2.780,2.777 2.990,2.884 C3.573,3.173 4.157,3.461 4.740,3.749 C5.532,4.140 6.324,4.532 7.116,4.924 C7.435,5.084 7.913,5.210 8.089,5.511 C8.274,5.825 8.172,6.885 8.172,7.370 C8.172,8.915 8.172,10.459 8.172,12.003 ZM17.973,2.688 C23.808,2.598 27.650,5.981 29.309,10.030 C30.394,12.679 30.397,16.115 29.276,18.741 C27.861,22.054 25.245,24.450 21.570,25.527 C20.729,25.774 19.839,25.804 18.848,25.952 C18.085,26.065 17.192,25.924 16.570,25.805 C14.617,25.431 13.102,24.856 11.736,23.929 C11.338,23.659 9.560,22.567 10.581,21.922 C11.148,21.564 11.841,22.377 12.181,22.624 C13.509,23.586 14.991,24.214 16.966,24.565 C18.584,24.853 20.448,24.541 21.653,24.125 C24.893,23.005 27.173,20.799 28.302,17.599 C28.714,16.432 29.037,14.649 28.764,13.080 C28.030,8.860 25.774,6.156 22.230,4.727 C20.914,4.197 18.887,3.738 16.999,4.075 C16.231,4.212 15.497,4.345 14.838,4.597 C13.070,5.273 11.537,6.265 10.449,7.615 C10.196,7.929 9.673,8.818 9.030,8.349 C8.802,8.184 8.683,7.765 8.865,7.468 C9.204,6.913 9.762,6.321 10.267,5.918 C10.570,5.652 10.872,5.386 11.175,5.119 C12.238,4.325 13.472,3.647 14.887,3.210 C15.496,3.022 16.141,2.907 16.818,2.786 C17.203,2.753 17.588,2.721 17.973,2.688 ZM3.106,12.003 C4.354,12.003 5.603,12.003 6.852,12.003 C6.852,10.084 6.852,8.164 6.852,6.245 C5.603,5.625 4.354,5.005 3.106,4.385 C3.106,6.924 3.106,9.464 3.106,12.003 ZM25.910,9.034 C26.445,9.027 26.949,9.447 26.636,9.997 C26.036,10.601 25.437,11.204 24.837,11.808 C22.230,14.379 19.623,16.952 17.016,19.524 C16.263,20.275 15.509,21.025 14.755,21.776 C14.515,22.013 14.104,22.315 13.699,22.020 C13.450,21.838 13.353,21.379 13.567,21.090 C14.392,20.275 15.217,19.459 16.042,18.643 C18.215,16.501 20.388,14.358 22.560,12.216 C23.231,11.552 23.902,10.889 24.573,10.225 C25.004,9.799 25.368,9.355 25.910,9.034 ZM26.603,12.052 C27.089,12.047 27.548,12.408 27.329,12.950 C27.202,13.262 26.351,13.981 26.075,14.255 C24.040,16.261 22.004,18.268 19.970,20.275 C19.343,20.894 18.715,21.514 18.088,22.134 C17.851,22.278 17.475,22.209 17.297,22.069 C17.091,21.908 17.006,21.466 17.181,21.205 C17.786,20.601 18.391,19.997 18.996,19.394 C20.662,17.752 22.329,16.109 23.996,14.467 C24.485,13.989 24.975,13.510 25.464,13.031 C25.874,12.704 26.104,12.314 26.603,12.052 ZM2.380,13.309 C2.380,14.097 2.380,14.886 2.380,15.674 C4.107,15.674 5.834,15.674 7.561,15.674 C7.561,14.886 7.561,14.097 7.561,13.309 C5.834,13.309 4.107,13.309 2.380,13.309 ZM1.357,16.963 C1.357,22.194 1.357,27.426 1.357,32.657 C3.766,32.657 6.175,32.657 8.584,32.657 C8.584,27.426 8.584,22.194 8.584,16.963 C6.175,16.963 3.766,16.963 1.357,16.963 ZM10.828,26.262 C16.487,26.262 22.148,26.262 27.807,26.262 C29.078,26.262 30.349,26.262 31.619,26.262 C32.260,26.262 33.014,26.273 32.873,26.996 C32.782,27.462 32.445,27.876 32.262,28.285 C31.448,30.105 29.900,31.367 27.725,31.841 C26.864,32.029 25.698,31.939 24.689,31.939 C22.852,31.939 21.014,31.939 19.178,31.939 C16.868,31.939 14.557,31.939 12.247,31.939 C11.479,31.939 10.592,32.087 10.350,31.547 C10.286,31.404 10.262,31.192 10.333,31.025 C10.555,30.510 11.431,30.634 12.165,30.634 C13.897,30.634 15.630,30.634 17.362,30.634 C19.661,30.634 21.961,30.634 24.260,30.634 C25.523,30.634 27.010,30.741 27.989,30.438 C29.537,29.959 30.491,28.941 31.157,27.583 C31.157,27.577 31.157,27.572 31.157,27.567 C25.806,27.567 20.453,27.567 15.102,27.567 C14.101,27.567 13.100,27.567 12.099,27.567 C11.685,27.567 11.079,27.654 10.729,27.534 C10.365,27.410 10.133,26.883 10.416,26.507 C10.516,26.373 10.669,26.341 10.828,26.262 Z"/>
</svg>