<svg 
 xmlns="http://www.w3.org/2000/svg"
 xmlns:xlink="http://www.w3.org/1999/xlink"
 width="31px" height="34px">
<path fill-rule="evenodd"  fill="rgb(100, 100, 100)"
 d="M15.396,-0.003 C16.026,-0.001 15.866,0.453 16.012,0.954 C16.083,1.195 16.214,1.413 16.351,1.592 C16.501,1.786 16.784,1.964 17.029,2.054 C17.426,2.198 17.860,2.058 18.000,2.468 C18.239,3.168 17.441,3.063 17.045,3.201 C16.675,3.331 16.352,3.612 16.167,3.934 C15.944,4.321 16.068,5.139 15.581,5.258 C14.901,5.424 15.055,4.611 14.903,4.205 C14.807,3.949 14.647,3.729 14.472,3.552 C14.328,3.407 14.108,3.275 13.902,3.201 C13.529,3.069 13.108,3.199 12.962,2.835 C12.666,2.095 13.518,2.198 13.917,2.054 C14.271,1.927 14.582,1.660 14.764,1.353 C15.096,0.793 14.772,0.336 15.396,-0.003 ZM15.458,2.054 C15.350,2.297 15.099,2.454 14.919,2.627 C15.071,2.815 15.292,3.044 15.473,3.201 C15.489,3.191 15.504,3.180 15.519,3.169 C15.621,2.934 15.874,2.813 16.028,2.627 C16.028,2.622 16.028,2.617 16.028,2.612 C15.775,2.490 15.676,2.201 15.458,2.054 ZM4.565,4.796 C5.236,4.790 5.058,5.246 5.212,5.768 C5.280,5.999 5.418,6.217 5.551,6.389 C5.701,6.583 5.994,6.769 6.244,6.852 C6.632,6.979 7.038,6.858 7.184,7.234 C7.468,7.963 6.584,7.854 6.183,8.015 C5.842,8.152 5.545,8.411 5.366,8.716 C5.133,9.115 5.269,9.945 4.750,10.055 C4.146,10.183 4.251,9.524 4.134,9.115 C4.055,8.842 3.900,8.555 3.718,8.382 C3.575,8.246 3.384,8.111 3.194,8.031 C2.838,7.881 2.311,7.999 2.162,7.633 C1.868,6.916 2.635,6.992 3.040,6.868 C3.420,6.750 3.758,6.482 3.949,6.166 C4.268,5.636 3.991,5.121 4.565,4.796 ZM4.658,6.836 C4.546,7.095 4.281,7.219 4.118,7.425 C4.295,7.623 4.522,7.756 4.658,7.999 C4.678,7.983 4.699,7.968 4.719,7.951 C4.810,7.747 5.053,7.549 5.228,7.425 C5.222,7.415 5.217,7.404 5.212,7.393 C4.969,7.278 4.843,7.014 4.658,6.836 ZM15.180,7.457 C16.905,7.441 17.878,8.266 18.354,9.529 C18.411,9.680 18.541,10.786 18.570,10.821 C19.137,11.527 19.610,12.016 19.910,13.036 C20.100,13.679 20.080,14.507 20.080,15.347 C20.080,16.277 20.080,17.207 20.080,18.137 C20.080,21.500 20.080,24.863 20.080,28.226 C20.080,29.666 20.080,31.106 20.080,32.546 C20.080,33.194 20.197,33.904 19.664,34.012 C19.037,34.140 19.109,33.385 19.109,32.833 C19.109,31.548 19.109,30.261 19.109,28.976 C19.109,25.602 19.109,22.228 19.109,18.854 C19.109,17.728 19.109,16.601 19.109,15.475 C19.109,14.892 19.166,14.235 19.063,13.721 C18.952,13.167 18.711,12.782 18.555,12.335 C18.549,12.335 18.544,12.335 18.539,12.335 C18.539,13.482 18.539,14.630 18.539,15.778 C18.539,16.475 18.630,17.305 18.508,17.945 C18.290,19.096 17.567,19.885 16.475,20.129 C16.172,20.197 15.812,20.177 15.458,20.177 C13.899,20.177 13.009,19.628 12.577,18.487 C12.361,17.919 12.407,17.063 12.407,16.272 C12.407,14.964 12.407,13.658 12.407,12.350 C12.397,12.356 12.387,12.361 12.376,12.367 C12.227,12.808 11.987,13.192 11.883,13.737 C11.785,14.257 11.837,14.917 11.837,15.507 C11.837,16.617 11.837,17.728 11.837,18.838 C11.837,22.223 11.837,25.608 11.837,28.991 C11.837,30.277 11.837,31.563 11.837,32.849 C11.837,33.396 11.904,34.141 11.283,34.012 C10.747,33.902 10.867,33.182 10.867,32.530 C10.867,31.090 10.867,29.650 10.867,28.210 C10.867,24.396 10.867,20.580 10.867,16.766 C10.866,14.437 10.769,12.997 11.714,11.617 C11.913,11.327 12.118,10.999 12.407,10.805 C12.394,9.201 13.194,8.173 14.271,7.696 C14.545,7.575 14.876,7.586 15.180,7.457 ZM26.166,7.457 C26.800,7.452 26.671,7.811 26.797,8.334 C26.858,8.585 26.985,8.822 27.121,9.003 C27.296,9.235 27.603,9.435 27.907,9.529 C28.304,9.653 28.659,9.527 28.800,9.912 C28.878,10.123 28.765,10.384 28.662,10.470 C28.489,10.612 28.188,10.558 27.938,10.629 C27.515,10.750 27.169,11.043 26.967,11.394 C26.731,11.805 26.885,12.605 26.351,12.717 C25.712,12.851 25.852,12.045 25.703,11.649 C25.618,11.420 25.475,11.204 25.318,11.044 C25.154,10.876 24.916,10.723 24.671,10.645 C24.295,10.525 23.903,10.639 23.762,10.278 C23.471,9.534 24.354,9.652 24.748,9.498 C25.123,9.351 25.420,9.070 25.611,8.733 C25.916,8.194 25.587,7.815 26.166,7.457 ZM15.257,8.461 C15.068,8.509 14.877,8.557 14.687,8.605 C14.029,8.886 13.430,9.539 13.393,10.454 C14.035,9.790 14.677,9.125 15.319,8.461 C15.299,8.461 15.278,8.461 15.257,8.461 ZM16.444,8.716 C15.427,9.774 14.410,10.831 13.393,11.888 C13.393,12.473 13.393,13.057 13.393,13.642 C14.698,12.292 16.002,10.943 17.307,9.593 C17.141,9.246 16.815,8.844 16.444,8.716 ZM26.274,9.498 C26.154,9.717 25.930,9.947 25.719,10.072 C25.734,10.093 25.750,10.114 25.765,10.135 C25.963,10.230 26.154,10.481 26.274,10.661 C26.284,10.655 26.294,10.650 26.304,10.645 C26.412,10.403 26.662,10.272 26.828,10.087 C26.669,9.882 26.449,9.694 26.274,9.498 ZM17.538,10.773 C16.156,12.207 14.775,13.642 13.393,15.076 C13.393,15.666 13.393,16.256 13.393,16.846 C14.780,15.411 16.167,13.977 17.553,12.542 C17.548,11.952 17.543,11.362 17.538,10.773 ZM4.380,12.781 C6.229,12.761 7.302,13.744 7.662,15.252 C7.756,15.645 7.726,16.175 7.724,16.654 C8.005,16.828 8.213,17.160 8.401,17.435 C9.312,18.765 9.264,19.948 9.264,22.201 C9.264,24.618 9.264,27.037 9.264,29.454 C9.264,30.564 9.264,31.675 9.264,32.785 C9.264,33.374 9.343,33.915 8.864,34.012 C8.321,34.123 8.294,33.563 8.294,33.072 C8.294,32.163 8.294,31.255 8.294,30.346 C8.294,28.009 8.294,25.671 8.294,23.333 C8.294,22.520 8.294,21.707 8.294,20.894 C8.283,20.469 8.273,20.044 8.263,19.619 C8.153,19.041 7.918,18.642 7.739,18.185 C7.734,18.185 7.729,18.185 7.724,18.185 C7.724,19.231 7.724,20.278 7.724,21.325 C7.718,21.962 7.713,22.600 7.708,23.237 C7.503,24.363 6.827,25.136 5.813,25.421 C5.493,25.511 5.103,25.501 4.704,25.501 C3.091,25.501 2.205,24.962 1.761,23.780 C1.566,23.261 1.607,22.491 1.607,21.771 C1.607,20.581 1.607,19.390 1.607,18.200 C1.597,18.206 1.586,18.211 1.576,18.216 C1.438,18.624 1.202,18.983 1.099,19.476 C1.012,19.885 1.037,20.390 1.037,20.878 C1.037,21.628 1.037,22.377 1.037,23.126 C1.037,25.543 1.037,27.961 1.037,30.378 C1.037,31.281 1.037,32.185 1.037,33.088 C1.037,33.576 1.012,34.128 0.467,34.012 C-0.004,33.912 0.066,33.385 0.066,32.801 C0.066,31.712 0.066,30.622 0.066,29.533 C0.066,27.260 0.066,24.985 0.066,22.711 C0.066,21.549 -0.063,20.126 0.174,19.141 C0.361,18.367 0.688,17.725 1.099,17.180 C1.268,17.000 1.437,16.819 1.607,16.638 C1.591,14.764 2.137,13.625 3.363,13.068 C3.674,12.927 4.043,12.923 4.380,12.781 ZM4.442,13.785 C4.283,13.822 4.123,13.859 3.964,13.897 C3.410,14.118 2.957,14.548 2.732,15.108 C2.418,15.889 2.578,17.888 2.578,18.981 C2.578,19.964 2.578,20.948 2.578,21.930 C2.578,22.491 2.537,23.115 2.701,23.508 C3.008,24.248 3.580,24.481 4.627,24.481 C4.883,24.481 5.140,24.481 5.397,24.481 C7.136,24.166 6.753,22.169 6.753,20.129 C6.753,19.178 6.753,18.227 6.753,17.276 C6.753,16.714 6.834,16.010 6.722,15.507 C6.483,14.436 5.738,13.777 4.442,13.785 ZM17.538,13.977 C16.192,15.368 14.847,16.761 13.501,18.153 C13.581,18.329 14.145,19.139 14.364,19.045 C15.427,17.945 16.490,16.846 17.553,15.746 C17.553,15.740 17.553,15.735 17.553,15.730 C17.548,15.145 17.543,14.561 17.538,13.977 ZM4.565,14.375 C5.269,14.341 5.444,15.130 4.919,15.347 C4.266,15.618 3.873,14.768 4.565,14.375 ZM26.119,14.901 C28.050,14.879 29.351,16.269 29.339,18.264 C29.594,18.421 29.783,18.706 29.956,18.950 C30.921,20.310 30.880,21.491 30.880,23.827 C30.880,25.819 30.880,27.812 30.880,29.804 C30.880,30.819 30.880,31.834 30.880,32.849 C30.880,33.419 30.940,33.917 30.480,34.012 C30.215,34.067 30.004,33.871 29.940,33.710 C29.863,33.514 29.909,33.147 29.909,32.896 C29.909,32.163 29.909,31.430 29.909,30.697 C29.909,28.168 29.909,25.639 29.909,23.110 C29.910,21.854 29.949,20.398 29.339,19.795 C29.339,21.106 29.339,22.419 29.339,23.732 C29.340,24.671 29.358,25.551 29.078,26.170 C28.742,26.913 28.045,27.435 27.152,27.605 C26.751,27.610 26.351,27.615 25.950,27.621 C25.334,27.621 24.887,27.521 24.502,27.286 C22.863,26.285 23.223,24.367 23.223,21.787 C23.218,21.117 23.213,20.448 23.208,19.778 C23.208,19.789 23.208,19.800 23.208,19.810 C22.581,20.447 22.653,21.844 22.653,23.126 C22.653,25.655 22.653,28.184 22.653,30.713 C22.653,31.436 22.653,32.158 22.653,32.881 C22.653,33.133 22.698,33.495 22.622,33.694 C22.559,33.859 22.350,34.068 22.083,34.012 C21.622,33.917 21.682,33.436 21.682,32.865 C21.682,31.866 21.682,30.867 21.682,29.868 C21.682,27.876 21.682,25.883 21.682,23.891 C21.682,22.874 21.567,21.631 21.775,20.767 C22.046,19.636 22.565,18.959 23.223,18.248 C23.207,16.672 23.974,15.640 25.025,15.172 C25.287,15.092 25.549,15.012 25.811,14.933 C25.914,14.922 26.017,14.911 26.119,14.901 ZM26.304,15.905 C26.502,16.807 27.241,17.567 28.307,17.563 C28.307,17.558 28.307,17.552 28.307,17.547 C28.000,16.603 27.430,16.002 26.304,15.905 ZM3.564,15.969 C4.236,15.937 4.406,16.726 3.903,16.941 C3.248,17.221 2.807,16.341 3.564,15.969 ZM5.613,15.969 C6.326,15.935 6.453,16.766 5.921,16.957 C5.266,17.193 4.908,16.318 5.613,15.969 ZM28.369,19.651 C28.369,19.290 28.369,18.928 28.369,18.567 C26.860,18.585 25.580,17.442 25.365,16.144 C25.122,16.197 24.847,16.455 24.717,16.638 C24.710,18.237 25.957,19.365 27.244,19.651 C27.601,19.730 28.014,19.678 28.369,19.651 ZM17.538,17.164 C16.901,17.829 16.264,18.492 15.627,19.157 C16.634,19.174 17.091,18.876 17.414,18.200 C17.504,18.013 17.663,17.482 17.538,17.164 ZM3.533,18.105 C4.253,18.070 4.410,18.860 3.887,19.077 C3.249,19.342 2.829,18.469 3.533,18.105 ZM5.582,18.105 C6.265,18.072 6.490,18.803 5.983,19.062 C5.368,19.374 4.856,18.521 5.582,18.105 ZM28.369,20.671 C26.689,20.731 25.534,20.260 24.779,19.284 C24.583,19.031 24.315,18.780 24.209,18.439 C24.204,18.439 24.199,18.439 24.194,18.439 C24.194,19.268 24.194,20.098 24.194,20.926 C24.524,21.137 24.774,21.501 25.118,21.723 C25.923,22.243 27.169,22.503 28.369,22.218 C28.369,21.702 28.369,21.187 28.369,20.671 ZM3.579,20.225 C4.227,20.196 4.396,21.020 3.872,21.213 C3.209,21.456 2.828,20.558 3.579,20.225 ZM5.644,20.225 C6.359,20.195 6.434,21.091 5.875,21.229 C5.329,21.363 5.047,20.765 5.320,20.400 C5.394,20.301 5.523,20.278 5.644,20.225 ZM24.194,22.281 C24.190,22.537 24.136,23.851 24.224,23.954 C24.368,24.127 24.599,24.218 24.795,24.337 C25.837,24.974 26.864,25.074 28.369,24.911 C28.369,24.358 28.369,23.806 28.369,23.253 C27.190,23.391 26.191,23.343 25.272,22.935 C24.876,22.759 24.562,22.453 24.194,22.281 ZM3.548,22.361 C4.252,22.327 4.406,23.118 3.887,23.333 C3.245,23.599 2.818,22.722 3.548,22.361 ZM5.597,22.361 C6.296,22.327 6.472,23.114 5.952,23.333 C5.297,23.608 4.901,22.756 5.597,22.361 ZM24.194,25.166 C24.381,25.859 24.627,26.299 25.241,26.537 C25.482,26.631 25.806,26.617 26.135,26.617 C27.076,26.617 27.638,26.541 28.030,25.995 C28.030,25.990 28.030,25.984 28.030,25.979 C26.914,26.142 25.771,25.910 24.979,25.565 C24.717,25.432 24.455,25.299 24.194,25.166 Z"/>
</svg>