<svg 
 xmlns="http://www.w3.org/2000/svg"
 xmlns:xlink="http://www.w3.org/1999/xlink"
 width="20px" height="34px">
<path fill-rule="evenodd"  fill="rgb(100, 100, 100)"
 d="M7.127,0.003 C7.187,0.008 7.247,0.013 7.307,0.019 C7.297,0.019 7.287,0.019 7.277,0.019 C6.967,0.232 6.657,0.445 6.347,0.658 C5.696,1.135 5.069,1.640 4.442,2.141 C3.026,3.272 2.043,4.685 1.442,6.681 C1.224,7.406 1.118,8.188 0.962,8.975 C0.957,8.975 0.952,8.975 0.947,8.975 C0.947,8.964 0.947,8.954 0.947,8.943 C0.473,8.121 0.561,6.045 0.842,5.090 C1.559,2.652 3.243,1.303 5.432,0.409 C5.847,0.294 6.262,0.180 6.677,0.065 C6.827,0.045 6.977,0.024 7.127,0.003 ZM9.722,0.331 C14.891,0.243 17.622,3.094 19.141,6.822 C19.913,8.715 20.349,11.186 19.651,13.500 C18.288,18.014 14.518,20.193 13.366,24.936 C13.022,26.355 13.340,27.906 14.176,28.525 C15.163,29.256 16.492,28.627 16.786,27.651 C16.791,27.651 16.796,27.651 16.801,27.651 C16.801,27.682 16.801,27.714 16.801,27.745 C16.751,27.870 16.701,27.995 16.651,28.119 C16.661,28.114 16.671,28.109 16.681,28.104 C16.716,28.062 16.751,28.021 16.786,27.979 C16.657,28.334 16.352,28.598 16.216,28.931 C16.191,29.087 16.166,29.243 16.141,29.399 C16.031,29.742 15.921,30.085 15.811,30.429 C15.174,31.944 13.884,32.933 12.376,33.549 C11.224,34.020 9.354,34.188 8.042,33.768 C7.614,33.630 7.182,33.448 6.827,33.222 C6.677,33.102 6.527,32.982 6.377,32.863 C6.007,32.722 5.637,32.582 5.267,32.441 C3.769,31.768 2.404,30.700 2.072,28.806 C1.870,27.650 2.508,26.530 2.897,25.888 C4.251,23.652 6.511,22.306 8.612,20.849 C9.102,20.508 10.578,19.567 10.787,19.070 C11.141,18.224 11.433,17.340 11.672,16.370 C11.746,15.892 11.822,15.413 11.897,14.935 C12.247,12.775 10.771,10.580 9.707,9.833 C8.915,9.278 7.956,8.818 7.367,8.054 C7.025,7.611 6.714,7.130 6.497,6.556 C6.417,6.224 6.337,5.890 6.257,5.558 C6.252,5.568 6.247,5.579 6.242,5.589 C6.087,5.844 5.932,6.099 5.777,6.354 C5.442,6.842 5.107,7.331 4.772,7.820 C3.473,9.655 2.094,11.415 1.337,13.827 C0.486,16.537 1.857,18.336 3.362,19.444 C3.759,19.737 4.211,20.089 4.712,20.255 C4.712,20.261 4.712,20.266 4.712,20.271 C4.012,20.252 3.319,19.910 2.822,19.631 C0.922,18.566 -0.668,16.475 0.227,13.375 C1.358,9.457 4.057,7.229 6.077,4.247 C6.320,3.888 6.342,3.362 6.497,2.890 C6.792,1.986 7.322,0.824 8.012,0.346 C7.922,0.960 7.832,1.574 7.742,2.188 C7.568,3.297 8.108,4.495 8.492,5.058 C9.836,7.029 12.392,7.885 13.816,9.817 C14.481,10.719 14.874,11.789 15.151,13.110 C15.236,13.513 15.204,13.913 15.271,14.358 C15.322,14.694 15.341,15.195 15.286,15.544 C15.261,15.986 15.236,16.427 15.211,16.870 C15.111,17.458 15.011,18.045 14.911,18.633 C14.816,19.002 14.721,19.372 14.626,19.741 C14.631,19.741 14.636,19.741 14.641,19.741 C14.641,19.730 14.641,19.720 14.641,19.709 C15.066,19.065 15.491,18.419 15.916,17.775 C17.032,16.134 18.153,14.549 18.676,12.283 C18.924,11.208 18.802,9.775 18.571,8.803 C17.999,6.398 16.953,4.229 15.346,2.890 C14.177,1.915 12.883,1.189 11.177,0.752 C10.658,0.619 10.101,0.580 9.542,0.487 C9.257,0.466 8.972,0.445 8.687,0.424 C9.032,0.393 9.377,0.362 9.722,0.331 ZM7.232,3.561 C6.841,5.292 7.835,7.102 8.792,7.789 C9.187,8.002 9.582,8.215 9.977,8.429 C10.459,8.734 10.883,9.100 11.311,9.458 C12.078,10.102 12.696,11.126 13.141,12.095 C13.256,12.392 13.371,12.688 13.486,12.984 C13.491,12.984 13.496,12.984 13.501,12.984 C13.501,12.980 13.501,12.974 13.501,12.969 C13.242,12.122 13.094,11.389 12.661,10.754 C11.517,9.072 9.631,8.127 8.417,6.525 C8.015,5.995 7.642,5.421 7.427,4.700 C7.387,4.568 7.263,3.597 7.232,3.561 ZM9.692,21.238 C9.238,21.793 8.369,22.369 7.787,22.815 C6.449,23.839 5.063,24.927 4.082,26.325 C3.660,26.926 2.891,27.971 3.197,29.134 C3.355,29.736 3.665,30.161 3.992,30.584 C4.394,31.106 4.999,31.550 5.552,31.911 C5.430,31.557 5.233,31.242 5.147,30.819 C4.945,29.828 5.231,28.800 5.507,28.104 C6.210,26.330 7.399,25.021 8.372,23.501 C8.703,22.983 9.014,22.455 9.332,21.910 C9.431,21.738 9.688,21.423 9.692,21.238 ZM12.646,24.203 C12.226,25.030 11.848,25.849 11.642,26.934 C11.303,28.706 12.551,30.023 14.236,29.633 C14.671,29.532 15.000,29.330 15.361,29.181 C15.361,29.175 15.361,29.170 15.361,29.165 C13.773,29.336 12.988,28.296 12.631,27.043 C12.534,26.702 12.540,26.314 12.481,25.920 C12.421,25.509 12.498,24.981 12.571,24.624 C12.596,24.484 12.621,24.344 12.646,24.203 ZM9.362,24.999 C8.551,26.349 7.360,27.382 6.767,28.946 C6.463,29.747 6.440,30.833 6.887,31.490 C7.696,32.679 9.932,33.281 11.867,32.785 C13.857,32.273 15.491,31.116 16.081,29.165 C16.066,29.175 16.051,29.185 16.036,29.196 C15.922,29.481 15.656,29.711 15.481,29.945 C14.790,30.867 13.893,31.732 12.766,32.192 C11.155,32.849 9.841,32.066 9.212,30.959 C8.619,29.918 8.515,27.992 8.867,26.575 C8.947,26.251 9.377,25.168 9.362,24.999 ZM10.412,26.559 C9.893,27.768 9.729,30.188 10.697,30.990 C11.711,31.832 13.033,31.208 13.891,30.647 C14.081,30.523 14.320,30.415 14.461,30.241 C14.136,30.329 13.777,30.404 13.426,30.475 C13.187,30.524 12.888,30.459 12.706,30.413 C11.569,30.126 10.896,29.465 10.547,28.369 C10.439,28.034 10.397,27.642 10.397,27.215 C10.402,26.996 10.407,26.778 10.412,26.559 ZM16.786,27.948 C16.791,27.958 16.796,27.968 16.801,27.979 C16.796,27.968 16.791,27.958 16.786,27.948 Z"/>
</svg>