<svg 
 xmlns="http://www.w3.org/2000/svg"
 xmlns:xlink="http://www.w3.org/1999/xlink"
 width="30px" height="34px">
<path fill-rule="evenodd"  fill="rgb(120, 120, 120)"
 d="M12.432,0.003 C21.149,-0.128 26.309,4.135 28.832,10.174 C30.280,13.640 30.460,18.998 28.939,22.582 C28.422,23.801 27.641,25.642 26.642,26.417 C26.271,26.704 25.809,26.904 25.253,27.002 C24.915,27.002 24.576,27.002 24.238,27.002 C23.437,27.979 22.636,28.955 21.834,29.931 C21.850,31.010 22.137,33.380 21.460,33.819 C20.956,34.146 19.465,33.925 18.736,33.925 C16.386,33.925 14.035,33.925 11.684,33.925 C10.333,33.925 6.147,34.243 5.755,33.446 C5.362,32.725 5.636,30.838 5.648,29.878 C4.846,28.920 4.045,27.961 3.244,27.002 C2.572,26.707 1.808,27.082 1.107,26.630 C-0.198,25.787 -0.449,23.424 0.893,22.423 C1.780,21.761 2.876,21.956 4.366,21.837 C4.181,18.226 7.871,18.170 9.921,17.204 C10.258,15.189 12.945,13.389 15.370,14.541 C16.612,15.131 17.040,16.093 17.667,17.310 C19.691,17.434 23.874,19.307 23.063,21.784 C23.081,21.819 23.099,21.855 23.116,21.890 C24.043,21.875 25.262,21.769 25.948,22.050 C26.286,22.281 26.624,22.512 26.963,22.742 C27.386,21.440 27.946,20.176 28.245,18.642 C28.702,16.294 28.216,13.599 27.604,11.825 C25.667,6.218 21.699,2.959 15.317,1.761 C11.673,1.067 7.224,2.930 5.114,4.423 C4.598,4.788 2.363,6.136 3.083,7.033 C3.282,7.429 3.881,7.601 4.312,7.299 C4.846,6.820 5.381,6.340 5.915,5.861 C7.456,4.739 9.361,3.955 11.577,3.518 C15.642,2.717 19.295,4.393 21.460,5.968 C23.680,7.582 25.427,10.079 26.268,13.050 C26.619,14.289 27.402,17.677 25.360,17.151 C24.638,16.151 24.773,13.825 24.345,12.624 C23.286,9.651 21.063,7.365 18.308,6.074 C15.037,4.541 10.283,5.142 7.624,6.766 C6.708,7.327 6.052,8.245 5.167,8.790 C3.990,9.515 2.338,9.023 1.694,8.151 C0.518,6.557 1.735,4.922 2.763,4.104 C4.545,2.686 6.389,1.414 8.853,0.642 C9.935,0.304 11.145,0.109 12.432,0.003 ZM13.607,7.352 C13.811,7.359 14.379,7.290 14.574,7.987 C14.602,9.125 14.786,11.393 14.447,11.876 C14.213,12.021 14.124,12.056 14.035,12.092 C13.568,12.233 13.289,12.023 13.020,11.825 C12.876,11.335 12.714,8.249 13.020,7.831 C13.157,7.517 13.319,7.509 13.607,7.352 ZM10.776,8.417 C11.025,8.648 10.983,10.622 10.930,12.107 C10.603,13.093 9.549,12.834 9.354,12.239 C9.311,11.475 9.071,8.837 9.370,8.601 C9.529,8.190 10.313,7.715 10.776,8.417 ZM17.133,8.044 C17.187,8.027 17.632,8.027 18.186,8.470 C18.269,9.695 18.330,10.181 18.201,12.162 C18.017,13.114 16.714,12.842 16.577,12.057 C16.424,10.128 16.530,9.523 16.562,8.705 C16.759,8.098 17.080,8.062 17.133,8.044 ZM6.235,10.494 C6.431,10.512 6.627,10.529 6.823,10.547 C7.614,10.626 7.434,14.965 7.089,15.101 C6.716,15.216 6.431,15.464 5.948,15.196 C5.321,15.207 5.283,11.128 5.915,10.654 C6.022,10.601 6.129,10.547 6.235,10.494 ZM20.766,10.494 C21.295,10.484 21.444,10.611 21.727,10.814 C22.013,11.783 22.012,13.807 21.781,14.861 C21.490,15.087 21.397,15.262 20.873,15.287 C20.573,15.157 20.367,15.051 20.232,14.754 C19.998,13.956 20.053,10.919 20.552,10.654 C20.623,10.601 20.695,10.547 20.766,10.494 ZM13.501,15.926 C12.617,16.022 11.883,16.508 11.577,17.417 C11.028,19.052 12.387,20.839 14.249,20.399 C16.730,19.813 16.443,15.884 13.501,15.926 ZM9.547,19.068 C8.466,19.739 6.081,19.734 6.022,21.358 C6.126,21.574 6.174,21.677 6.396,21.784 C7.235,22.029 10.888,21.900 12.112,21.890 C12.112,21.872 12.112,21.855 12.112,21.837 C10.987,21.028 10.398,20.595 9.868,19.068 C9.761,19.068 9.654,19.068 9.547,19.068 ZM17.614,19.068 C17.100,20.589 16.402,21.075 15.370,21.837 C15.370,21.855 15.370,21.872 15.370,21.890 C17.191,21.901 19.577,22.175 21.193,21.784 C22.125,20.405 18.910,19.125 17.614,19.068 ZM2.336,23.594 C1.945,23.819 1.819,23.898 1.641,24.340 C1.673,24.730 1.796,24.901 1.962,25.139 C3.462,25.594 5.938,25.298 7.731,25.298 C11.720,25.298 15.709,25.298 19.697,25.298 C21.504,25.298 25.671,25.476 25.734,24.872 C25.752,24.695 25.770,24.517 25.788,24.340 C25.746,24.032 25.651,23.954 25.520,23.754 C23.571,23.483 20.248,23.594 18.095,23.594 C12.842,23.594 7.588,23.594 2.336,23.594 ZM7.048,32.540 C11.653,32.771 15.931,32.647 20.656,32.535 C20.720,31.251 20.629,30.491 20.541,29.495 C20.730,28.618 21.336,27.837 21.941,27.056 C21.941,27.038 21.941,27.020 21.941,27.002 C16.475,27.020 11.007,27.038 5.541,27.056 C6.146,27.837 6.752,28.618 7.057,29.493 C6.954,30.522 6.799,31.161 7.048,32.540 Z"/>
</svg>