<svg 
 xmlns="http://www.w3.org/2000/svg"
 xmlns:xlink="http://www.w3.org/1999/xlink"
 width="13px" height="13px">
<path fill-rule="evenodd"  fill="rgb(255, 156, 0)"
 d="M7.778,12.318 C8.297,12.174 8.782,11.970 9.235,11.706 C9.688,11.441 10.099,11.124 10.469,10.754 C10.840,10.383 11.157,9.972 11.422,9.519 C11.686,9.066 11.890,8.581 12.034,8.062 C12.178,7.544 12.250,7.003 12.250,6.440 C12.250,5.878 12.178,5.337 12.034,4.819 C11.890,4.300 11.686,3.815 11.422,3.362 C11.157,2.909 10.840,2.497 10.469,2.127 C10.099,1.757 9.688,1.439 9.235,1.175 C8.782,0.911 8.297,0.706 7.778,0.562 C7.260,0.419 6.719,0.347 6.156,0.347 C5.593,0.347 5.053,0.419 4.534,0.562 C4.016,0.706 3.531,0.911 3.078,1.175 C2.625,1.439 2.213,1.757 1.843,2.127 C1.473,2.497 1.155,2.909 0.891,3.362 C0.626,3.815 0.422,4.300 0.278,4.819 C0.135,5.337 0.062,5.878 0.062,6.440 C0.062,7.003 0.135,7.544 0.278,8.062 C0.422,8.581 0.626,9.066 0.891,9.519 C1.155,9.972 1.473,10.383 1.843,10.754 C2.213,11.124 2.625,11.441 3.078,11.706 C3.531,11.970 4.016,12.174 4.534,12.318 C5.053,12.462 5.593,12.534 6.156,12.534 C6.719,12.534 7.260,12.462 7.778,12.318 ZM7.559,1.350 C8.008,1.477 8.428,1.654 8.819,1.883 C9.211,2.111 9.567,2.386 9.889,2.708 C10.210,3.030 10.485,3.386 10.714,3.778 C10.942,4.169 11.120,4.590 11.247,5.041 C11.374,5.491 11.438,5.958 11.438,6.440 C11.438,6.923 11.374,7.389 11.247,7.840 C11.120,8.291 10.942,8.712 10.714,9.103 C10.485,9.495 10.210,9.851 9.889,10.173 C9.567,10.494 9.211,10.770 8.819,10.998 C8.428,11.227 8.008,11.404 7.559,11.531 C7.111,11.658 6.643,11.722 6.156,11.722 C5.674,11.722 5.207,11.658 4.757,11.531 C4.306,11.404 3.885,11.227 3.493,10.998 C3.102,10.770 2.745,10.494 2.424,10.173 C2.102,9.851 1.827,9.495 1.599,9.103 C1.370,8.712 1.192,8.291 1.065,7.840 C0.938,7.389 0.875,6.923 0.875,6.440 C0.875,5.954 0.938,5.486 1.065,5.038 C1.192,4.589 1.370,4.169 1.599,3.778 C1.827,3.386 2.102,3.030 2.424,2.708 C2.745,2.386 3.102,2.111 3.493,1.883 C3.885,1.654 4.306,1.477 4.757,1.350 C5.207,1.223 5.674,1.159 6.156,1.159 C6.643,1.159 7.111,1.223 7.559,1.350 ZM6.562,5.222 L5.750,5.222 L5.750,9.284 L6.562,9.284 L6.562,5.222 ZM6.562,3.597 L5.750,3.597 L5.750,4.409 L6.562,4.409 L6.562,3.597 Z"/>
</svg>