<svg 
 xmlns="http://www.w3.org/2000/svg"
 xmlns:xlink="http://www.w3.org/1999/xlink"
 width="13px" height="13px">
<path fill-rule="evenodd"  fill="rgb(78, 78, 78)"
 d="M1.637,0.008 C4.171,0.008 6.705,0.008 9.239,0.008 C10.498,0.008 11.802,-0.108 12.431,0.514 C13.064,1.139 12.988,2.278 12.989,3.554 C12.990,5.217 13.004,8.447 12.998,10.727 C12.955,11.812 12.579,12.399 12.178,12.672 C11.510,13.126 10.084,12.976 8.985,12.976 C7.330,12.976 4.156,12.935 2.032,12.955 C1.124,12.964 0.341,12.479 0.117,11.760 C-0.059,11.194 0.016,10.245 0.016,9.531 C0.016,7.691 0.016,5.850 0.016,4.009 C0.016,3.151 0.015,1.600 0.117,1.223 C0.400,0.501 1.173,0.096 1.637,0.008 ZM10.100,1.527 C8.555,1.907 9.061,4.174 10.556,3.807 C12.051,3.440 11.646,1.147 10.100,1.527 ZM10.202,2.287 C10.286,2.304 10.371,2.321 10.455,2.338 C10.661,2.426 10.755,2.561 10.658,2.794 C10.570,2.999 10.435,3.093 10.202,2.996 C10.134,2.963 10.067,2.929 9.999,2.895 C9.982,2.777 9.965,2.658 9.948,2.541 C10.033,2.456 10.117,2.371 10.202,2.287 ZM6.097,3.047 C4.745,3.179 3.664,3.990 3.208,5.529 C2.529,7.821 4.629,10.305 6.958,9.886 C11.129,9.136 10.919,2.946 6.097,3.047 ZM6.198,3.807 C9.935,3.701 10.106,8.537 6.857,9.126 C5.031,9.457 3.431,7.653 3.918,5.833 C4.255,4.572 5.140,4.056 6.198,3.807 Z"/>
</svg>