<svg 
 xmlns="http://www.w3.org/2000/svg"
 xmlns:xlink="http://www.w3.org/1999/xlink"
 width="12px" height="16px">
<path fill-rule="evenodd"  fill="rgb(100, 100, 100)"
 d="M7.241,6.867 C7.593,6.515 7.769,6.071 7.769,5.531 C7.769,4.992 7.593,4.547 7.241,4.195 C6.890,3.844 6.444,3.668 5.905,3.668 C5.366,3.668 4.921,3.844 4.569,4.195 C4.218,4.547 4.042,4.992 4.042,5.531 C4.042,6.071 4.218,6.515 4.569,6.867 C4.921,7.219 5.366,7.394 5.905,7.394 C6.444,7.394 6.890,7.219 7.241,6.867 ZM9.632,1.805 C10.616,2.789 11.120,4.031 11.144,5.531 C10.933,7.664 10.059,9.779 8.525,11.877 C6.989,13.975 6.116,15.105 5.905,15.269 C5.694,15.105 4.821,13.975 3.286,11.877 C1.751,9.779 0.878,7.664 0.667,5.531 C0.690,4.031 1.194,2.789 2.179,1.805 C3.163,0.820 4.405,0.316 5.905,0.293 C7.405,0.316 8.648,0.820 9.632,1.805 Z"/>
</svg>