<svg 
 xmlns="http://www.w3.org/2000/svg"
 xmlns:xlink="http://www.w3.org/1999/xlink"
 width="40px" height="29px">
<path fill-rule="evenodd"  fill="rgb(245, 245, 245)"
 d="M34.279,28.995 C34.584,26.952 34.947,24.734 35.367,22.343 C35.787,19.952 36.246,17.494 36.742,14.967 C37.238,12.442 37.764,9.906 38.318,7.361 C38.871,4.816 39.435,2.367 40.008,0.014 L32.159,0.014 C31.204,2.174 30.230,4.440 29.237,6.811 C28.244,9.183 27.308,11.565 26.430,13.955 C25.551,16.347 24.740,18.718 23.995,21.070 C23.250,23.423 22.610,25.640 22.076,27.722 L22.878,28.995 L34.279,28.995 ZM12.222,28.995 C12.527,26.952 12.889,24.734 13.310,22.343 C13.730,19.952 14.188,17.494 14.685,14.967 C15.181,12.442 15.707,9.906 16.261,7.361 C16.814,4.816 17.378,2.367 17.951,0.014 L10.102,0.014 C9.147,2.174 8.173,4.440 7.180,6.811 C6.186,9.183 5.251,11.565 4.373,13.955 C3.494,16.347 2.683,18.718 1.938,21.070 C1.193,23.423 0.553,25.640 0.019,27.722 L0.821,28.995 L12.222,28.995 Z"/>
</svg>