<svg 
 xmlns="http://www.w3.org/2000/svg"
 xmlns:xlink="http://www.w3.org/1999/xlink"
 width="12px" height="13px">
<path fill-rule="evenodd"  fill="rgb(100, 100, 100)"
 d="M8.962,7.648 C8.827,7.707 8.705,7.779 8.596,7.865 C8.486,7.951 8.387,8.046 8.297,8.149 C8.207,8.253 8.119,8.347 8.033,8.433 C7.947,8.519 7.860,8.592 7.772,8.650 C7.684,8.709 7.589,8.738 7.488,8.738 C7.339,8.738 7.212,8.685 7.107,8.580 L3.877,5.351 C3.771,5.246 3.718,5.119 3.718,4.971 C3.718,4.869 3.748,4.774 3.806,4.686 C3.865,4.598 3.937,4.512 4.023,4.426 C4.109,4.340 4.204,4.252 4.308,4.162 C4.411,4.072 4.506,3.973 4.592,3.863 C4.678,3.754 4.750,3.632 4.809,3.497 C4.867,3.362 4.897,3.209 4.897,3.037 C4.897,2.865 4.864,2.700 4.800,2.542 C4.736,2.383 4.643,2.244 4.522,2.123 L3.232,0.834 C3.111,0.713 2.971,0.619 2.813,0.552 C2.654,0.486 2.489,0.453 2.317,0.453 C2.142,0.453 1.975,0.486 1.819,0.552 C1.663,0.619 1.524,0.713 1.403,0.834 L1.309,0.928 C1.098,1.139 0.911,1.331 0.749,1.505 C0.587,1.679 0.450,1.861 0.339,2.052 C0.227,2.244 0.143,2.455 0.087,2.685 C0.030,2.916 0.002,3.193 0.002,3.518 C0.002,3.994 0.076,4.486 0.224,4.994 C0.373,5.502 0.580,6.011 0.846,6.520 C1.112,7.030 1.428,7.530 1.796,8.020 C2.163,8.511 2.564,8.975 3.000,9.415 C3.436,9.854 3.899,10.260 4.390,10.631 C4.880,11.002 5.380,11.322 5.890,11.591 C6.400,11.861 6.913,12.072 7.429,12.224 C7.945,12.377 8.447,12.453 8.936,12.453 C9.260,12.453 9.540,12.424 9.774,12.365 C10.009,12.307 10.222,12.221 10.413,12.110 C10.605,11.999 10.788,11.861 10.964,11.697 C11.140,11.533 11.333,11.346 11.544,11.135 L11.627,11.052 C11.748,10.932 11.841,10.792 11.905,10.633 C11.969,10.475 12.002,10.310 12.002,10.139 C12.002,9.967 11.969,9.802 11.905,9.644 C11.841,9.485 11.748,9.346 11.627,9.225 L10.337,7.935 C10.216,7.815 10.076,7.722 9.918,7.657 C9.759,7.593 9.594,7.560 9.422,7.560 C9.250,7.560 9.097,7.590 8.962,7.648 Z"/>
</svg>