<svg 
 xmlns="http://www.w3.org/2000/svg"
 xmlns:xlink="http://www.w3.org/1999/xlink"
 width="15px" height="11px">
<path fill-rule="evenodd"  fill="rgb(100, 100, 100)"
 d="M6.234,-0.000 C6.666,0.009 7.098,0.019 7.530,0.029 C8.058,0.131 8.453,0.086 8.780,0.407 C9.382,0.851 8.931,3.761 9.128,4.720 C9.205,4.632 9.282,4.545 9.388,4.455 C9.835,3.608 10.243,2.955 10.516,2.097 C10.669,1.618 10.796,0.947 11.118,0.670 C11.494,0.348 12.335,0.466 12.947,0.466 C13.643,0.466 14.582,0.318 14.868,0.844 C15.190,1.436 14.804,2.246 14.614,2.651 C14.198,3.535 13.741,4.293 13.271,5.099 C13.082,5.424 12.741,5.762 12.669,6.206 C13.353,7.090 14.200,7.881 14.729,8.945 C14.905,9.297 15.120,9.968 14.868,10.431 C14.570,10.981 13.924,10.985 13.178,10.985 C12.340,10.985 11.533,11.098 11.003,10.694 C10.323,10.176 9.979,9.144 9.290,8.683 C9.259,8.712 9.228,8.741 9.197,8.770 C9.080,9.297 9.113,10.077 8.780,10.344 C8.180,10.826 5.645,10.326 5.169,10.082 C3.221,9.081 1.828,5.941 0.864,3.642 C0.661,3.158 -0.160,1.688 0.007,1.019 C0.061,0.803 0.238,0.576 0.401,0.495 C0.633,0.379 2.667,0.346 3.016,0.437 C3.668,0.605 3.751,1.261 4.012,1.923 C4.387,2.876 4.844,4.186 5.493,4.807 C5.568,3.966 5.709,2.576 5.406,1.877 C4.499,1.659 4.442,0.786 5.215,0.291 C5.514,0.100 5.829,0.065 6.234,-0.000 Z"/>
</svg>