<svg 
 xmlns="http://www.w3.org/2000/svg"
 xmlns:xlink="http://www.w3.org/1999/xlink"
 width="72px" height="67px">
<path fill-rule="evenodd"  fill="rgb(239, 230, 200)"
 d="M54.569,65.500 L54.569,50.921 L71.219,50.921 L71.219,65.500 L54.569,65.500 ZM42.508,46.961 C42.508,62.980 30.179,66.490 17.669,66.490 C6.060,66.490 0.480,64.600 0.480,64.600 L3.180,52.541 C7.050,53.530 11.279,53.890 16.769,53.890 C23.969,53.890 27.299,51.911 27.299,46.781 C27.299,39.941 24.239,38.501 11.369,37.691 L11.369,27.522 C21.449,26.892 24.509,25.632 24.509,19.422 C24.509,16.002 22.439,13.392 17.399,13.392 C11.459,13.392 5.790,15.012 5.790,15.012 L1.740,4.572 C7.050,1.963 11.999,0.973 18.119,0.973 C29.279,0.973 39.268,6.012 39.268,17.352 C39.268,26.172 34.499,29.051 31.079,31.211 C37.738,33.911 42.508,38.771 42.508,46.961 Z"/>
</svg>